<svg width="32" height="32" viewBox="0 0 32 32" fill="none" xmlns="http://www.w3.org/2000/svg">
<path fill-rule="evenodd" clip-rule="evenodd" d="M16.4393 7.56066C15.8536 6.97487 15.8536 6.02513 16.4393 5.43934C17.0251 4.85355 17.9749 4.85355 18.5607 5.43934L27.5598 14.4384C27.5633 14.442 27.5669 14.4456 27.5704 14.4492C27.8361 14.7198 28 15.0908 28 15.5C28 15.7034 27.9595 15.8973 27.8862 16.0742C27.813 16.2511 27.7045 16.4168 27.5607 16.5607L18.5607 25.5607C17.9749 26.1464 17.0251 26.1464 16.4393 25.5607C15.8536 24.9749 15.8536 24.0251 16.4393 23.4393L22.8787 17H4.5C3.67157 17 3 16.3284 3 15.5C3 14.6716 3.67157 14 4.5 14H22.8787L16.4393 7.56066Z" fill="#FFFFFF"/>
</svg>
