<svg width="32" height="32" viewBox="0 0 32 32" fill="none" xmlns="http://www.w3.org/2000/svg">
<path fill-rule="evenodd" clip-rule="evenodd" d="M14.5607 7.56066C15.1464 6.97487 15.1464 6.02513 14.5607 5.43934C13.9749 4.85355 13.0251 4.85355 12.4393 5.43934L3.44025 14.4384C3.43668 14.442 3.43313 14.4456 3.42959 14.4492C3.16388 14.7198 3 15.0908 3 15.5C3 15.7034 3.04048 15.8973 3.11382 16.0742C3.18702 16.2511 3.29552 16.4168 3.43934 16.5607L12.4393 25.5607C13.0251 26.1464 13.9749 26.1464 14.5607 25.5607C15.1464 24.9749 15.1464 24.0251 14.5607 23.4393L8.12132 17H26.5C27.3284 17 28 16.3284 28 15.5C28 14.6716 27.3284 14 26.5 14H8.12132L14.5607 7.56066Z" fill="#213D4D"/>
</svg>
