<svg width="32" height="32" viewBox="0 0 32 32" fill="none"
    xmlns="http://www.w3.org/2000/svg">
    <path fill-rule="evenodd" clip-rule="evenodd" d="M20 8.5C19.337 8.5 18.7011 8.76339 18.2322 9.23223C17.7634 9.70107 17.5 10.337 17.5 11C17.5 11.8284 16.8284 12.5 16 12.5C15.1716 12.5 14.5 11.8284 14.5 11C14.5 9.54131 15.0795 8.14236 16.1109 7.11091C17.1424 6.07946 18.5413 5.5 20 5.5H28C28.663 5.5 29.2989 5.76339 29.7678 6.23223C30.2366 6.70108 30.5 7.33696 30.5 8V24C30.5 24.663 30.2366 25.2989 29.7678 25.7678C29.2989 26.2366 28.663 26.5 28 26.5H20C19.337 26.5 18.7011 26.7634 18.2322 27.2322C17.7634 27.7011 17.5 28.337 17.5 29C17.5 29.8284 16.8284 30.5 16 30.5C15.1716 30.5 14.5 29.8284 14.5 29C14.5 27.5413 15.0795 26.1424 16.1109 25.1109C17.1424 24.0795 18.5413 23.5 20 23.5H27.5V8.5H20Z" fill="#FFFFFF"/>
    <path fill-rule="evenodd" clip-rule="evenodd" d="M2.23223 6.23223C2.70107 5.76339 3.33696 5.5 4 5.5H12C13.4587 5.5 14.8576 6.07946 15.8891 7.11091C16.9205 8.14236 17.5 9.54131 17.5 11V29C17.5 29.8284 16.8284 30.5 16 30.5C15.1716 30.5 14.5 29.8284 14.5 29C14.5 28.337 14.2366 27.7011 13.7678 27.2322C13.2989 26.7634 12.663 26.5 12 26.5H4C3.33696 26.5 2.70108 26.2366 2.23223 25.7678C1.76339 25.2989 1.5 24.663 1.5 24V8C1.5 7.33696 1.76339 6.70107 2.23223 6.23223ZM14.5 24.101V11C14.5 10.337 14.2366 9.70107 13.7678 9.23223C13.2989 8.76339 12.663 8.5 12 8.5H4.5V23.5H12C12.8773 23.5 13.7329 23.7096 14.5 24.101Z" fill="#FFFFFF"/>
</svg>
