<svg width="32" height="32" viewBox="0 0 32 32" fill="none"
    xmlns="http://www.w3.org/2000/svg">
    <g clip-path="url(#clip0)">
        <path d="M26.8086 22.3801V25.9747C26.8086 26.7625 26.2284 27.5031 25.2 28.1542C25.0538 28.2438 24.8981 28.3381 24.7283 28.423C24.7283 28.423 24.7236 28.423 24.7236 28.4278C24.5774 28.508 24.4217 28.5835 24.2566 28.6636C23.7047 28.9231 23.0678 29.1637 22.3697 29.376C22.214 29.4232 22.0583 29.4703 21.8979 29.5175H21.8932C21.7423 29.5599 21.5866 29.6023 21.4262 29.6448C20.8319 29.7958 20.2044 29.9325 19.5393 30.0458C19.3836 30.0741 19.228 30.1024 19.0676 30.126H19.0629C18.9072 30.1496 18.7563 30.1778 18.5959 30.1968C17.9874 30.2864 17.3599 30.3572 16.7089 30.4137C16.5533 30.4279 16.3975 30.4421 16.2372 30.4515H16.2325C16.0768 30.4657 15.9259 30.4752 15.7655 30.4846C15.1523 30.5222 14.5201 30.5459 13.8786 30.5506C13.7229 30.5553 13.5672 30.5553 13.4069 30.5553H13.4021C13.2418 30.5553 13.0908 30.5553 12.9351 30.5506C12.2936 30.5459 11.6615 30.5222 11.0482 30.4846C10.8878 30.4752 10.7322 30.4657 10.5765 30.4515H10.5718C10.4114 30.4421 10.2604 30.4279 10.1048 30.4137C9.45377 30.3572 8.82641 30.2864 8.21783 30.1968C8.05745 30.1779 7.90179 30.1496 7.74612 30.126H7.74141C7.58103 30.1024 7.43008 30.0741 7.27442 30.0458C6.60926 29.9325 5.9819 29.7958 5.38746 29.6448C5.22709 29.6023 5.06671 29.5599 4.91576 29.5175H4.91105C4.75067 29.4703 4.59972 29.4232 4.44406 29.376C3.74589 29.1637 3.10903 28.9231 2.5571 28.6636C2.39201 28.5882 2.23634 28.508 2.0854 28.423C2.0854 28.423 2.08068 28.423 2.08068 28.4183C1.91559 28.3382 1.75992 28.2486 1.61369 28.1542C0.584933 27.5079 0 26.7625 0 25.9747V22.3801H26.8086Z" fill="#F6C358"/>
        <path d="M26.8086 22.3801C26.8086 23.1679 26.2284 23.9085 25.2 24.5501C25.0491 24.6491 24.8934 24.7435 24.7235 24.8285C24.5773 24.9134 24.4216 24.9888 24.2565 25.069C23.7046 25.3285 23.0677 25.5644 22.3696 25.7813C22.2139 25.8285 22.0582 25.8757 21.8979 25.9228H21.8932C21.7422 25.9653 21.5866 26.0078 21.4262 26.0502C20.8318 26.2012 20.2044 26.338 19.5392 26.4512C19.3836 26.4796 19.2279 26.5078 19.0675 26.5314H19.0628C18.9071 26.555 18.7562 26.5833 18.5958 26.6022C17.9873 26.6918 17.3599 26.7625 16.7089 26.8192C16.5532 26.8333 16.3975 26.8475 16.2372 26.8569H16.2324C16.0768 26.871 15.9258 26.8805 15.7654 26.8899C15.1522 26.9277 14.5201 26.9513 13.8785 26.956C13.7228 26.9607 13.5672 26.9607 13.4068 26.9607H13.4021C13.2417 26.9607 13.0907 26.9607 12.9351 26.956C12.2935 26.9513 11.6614 26.9277 11.0481 26.8899C10.8877 26.8805 10.7321 26.871 10.5764 26.8569H10.5717C10.4113 26.8475 10.2604 26.8333 10.1047 26.8192C9.4537 26.7625 8.82634 26.6918 8.21776 26.6022C8.05738 26.5833 7.90172 26.555 7.74606 26.5314H7.74134C7.58096 26.5078 7.43001 26.4796 7.27435 26.4512C6.6092 26.338 5.98183 26.2012 5.3874 26.0502C5.22702 26.0078 5.06664 25.9653 4.91569 25.9228H4.91098C4.7506 25.8757 4.59965 25.8285 4.44399 25.7813C3.74583 25.569 3.10896 25.3285 2.55703 25.069C2.39194 24.9935 2.23627 24.9134 2.08533 24.8285C2.08533 24.8285 2.08061 24.8285 2.08061 24.8238C1.91552 24.7435 1.75986 24.6539 1.61362 24.5596C0.584933 23.9132 0 23.1679 0 22.3801C0 19.8516 6.00513 17.7995 13.4066 17.7995C20.8082 17.7995 26.8086 19.8516 26.8086 22.3801Z" fill="#FCD462"/>
        <path d="M13.3654 25.6807C13.2319 25.6807 13.105 25.6805 12.9742 25.6765C12.3568 25.6717 11.7454 25.6503 11.1264 25.6123C10.9756 25.6034 10.8331 25.5949 10.6906 25.5821L10.6335 25.577H10.6113C10.485 25.5688 10.3646 25.5575 10.2412 25.5463C9.56187 25.4872 8.96935 25.419 8.40396 25.3359C8.27378 25.3201 8.18331 25.3051 8.09352 25.2905L7.83912 25.2513C7.74434 25.2359 7.50346 25.1918 7.50346 25.1918C6.89536 25.0884 6.31077 24.9643 5.70179 24.8097C5.56075 24.7722 5.407 24.7316 5.26199 24.6907L4.81427 24.5561C4.28469 24.3951 3.79659 24.2178 3.36014 24.0278V24.0238L2.64995 23.6776L2.42035 23.5484H2.41099C2.37662 23.5278 2.34184 23.5063 2.30726 23.484C1.54562 23.0051 1.27994 22.5913 1.27994 22.3801C1.27994 21.2166 5.88389 19.0797 13.4066 19.0797C20.9262 19.0797 25.5284 21.2165 25.5284 22.3801C25.5284 22.5907 25.2649 23.0009 24.5224 23.4641C24.3659 23.5664 24.2557 23.6312 24.1505 23.6838L24.0803 23.7218C23.9639 23.7895 23.8393 23.8487 23.7082 23.9124C23.2412 24.132 22.6616 24.3501 21.9895 24.5591L21.5464 24.6907C21.4014 24.7314 21.252 24.7722 21.098 24.8131C20.5022 24.9641 19.9178 25.0882 19.3245 25.1893C19.1982 25.2122 19.0816 25.2334 18.9645 25.2522L18.7053 25.2922C18.6203 25.3061 18.5355 25.3206 18.447 25.331C17.8433 25.4191 17.2508 25.4872 16.5977 25.5441C16.4624 25.5564 16.3312 25.5683 16.1972 25.577L16.1178 25.5822C15.9756 25.5949 15.8372 25.6035 15.6905 25.612C15.0678 25.6503 14.4564 25.6718 13.8691 25.676C13.7094 25.6805 13.5754 25.6807 13.44 25.6807C13.429 25.6807 13.3775 25.6807 13.3654 25.6807Z" fill="#F6C358"/>
        <path d="M2.55675 25.069V28.6636C2.39166 28.5881 2.236 28.5079 2.08505 28.423C2.08505 28.423 2.08033 28.423 2.08033 28.4183C1.91524 28.3381 1.75958 28.2485 1.61334 28.1541V24.5595C1.75958 24.6538 1.91524 24.7435 2.08033 24.8237C2.08033 24.8284 2.08505 24.8284 2.08505 24.8284C2.236 24.9134 2.39166 24.9935 2.55675 25.069Z" fill="#DC8744"/>
        <path d="M5.3872 26.0502V29.6448C5.22682 29.6023 5.06644 29.5599 4.91549 29.5175H4.91078C4.7504 29.4702 4.59945 29.4232 4.44379 29.3759V25.7813C4.59945 25.8285 4.7504 25.8757 4.91078 25.9228H4.91549C5.06644 25.9653 5.22682 26.0078 5.3872 26.0502Z" fill="#DC8744"/>
        <path d="M8.21755 26.6021V30.1968C8.05717 30.1779 7.90151 30.1496 7.74585 30.126H7.74113C7.58075 30.1024 7.4298 30.0741 7.27414 30.0458V26.4512C7.4298 26.4796 7.58075 26.5078 7.74113 26.5314H7.74585C7.90151 26.5549 8.05717 26.5833 8.21755 26.6021Z" fill="#DC8744"/>
        <path d="M11.048 26.8899V30.4846C10.8876 30.4752 10.732 30.4657 10.5763 30.4515H10.5716C10.4112 30.4421 10.2602 30.4279 10.1046 30.4137V26.8192C10.2602 26.8333 10.4112 26.8475 10.5716 26.8569H10.5763C10.732 26.871 10.8875 26.8804 11.048 26.8899Z" fill="#DC8744"/>
        <path d="M13.8783 26.9559V30.5505C13.7227 30.5553 13.567 30.5553 13.4066 30.5553H13.4019C13.2415 30.5553 13.0906 30.5553 12.9349 30.5505V26.9559C13.0906 26.9606 13.2415 26.9606 13.4019 26.9606H13.4066C13.567 26.9606 13.7227 26.9606 13.8783 26.9559Z" fill="#DC8744"/>
        <path d="M16.7088 26.8192V30.4137C16.5531 30.4279 16.3974 30.4421 16.2371 30.4515H16.2324C16.0767 30.4657 15.9258 30.4752 15.7654 30.4846V26.8899C15.9258 26.8805 16.0767 26.871 16.2324 26.8569H16.2371C16.3974 26.8474 16.5531 26.8333 16.7088 26.8192Z" fill="#DC8744"/>
        <path d="M19.5391 26.4512V30.0458C19.3835 30.0741 19.2278 30.1024 19.0674 30.126H19.0627C18.9071 30.1496 18.7561 30.1778 18.5957 30.1968V26.6021C18.7561 26.5833 18.9071 26.555 19.0627 26.5314H19.0674C19.2278 26.5078 19.3835 26.4795 19.5391 26.4512Z" fill="#DC8744"/>
        <path d="M22.3696 25.7813V29.3759C22.2139 29.4232 22.0582 29.4702 21.8979 29.5175H21.8931C21.7422 29.5599 21.5865 29.6023 21.4261 29.6448V26.0502C21.5865 26.0078 21.7422 25.9653 21.8931 25.9228H21.8979C22.0582 25.8757 22.2138 25.8285 22.3696 25.7813Z" fill="#DC8744"/>
        <path d="M25.1999 24.5501V28.1541C25.0537 28.2438 24.898 28.3381 24.7282 28.423C24.7282 28.423 24.7235 28.423 24.7235 28.4277C24.5773 28.508 24.4216 28.5835 24.2565 28.6636V25.069C24.4216 24.9888 24.5773 24.9134 24.7235 24.8285C24.8933 24.7435 25.049 24.6491 25.1999 24.5501Z" fill="#DC8744"/>
        <path d="M32 16.9286V20.5232C32 21.3109 31.4198 22.0516 30.3915 22.7026C30.2452 22.7922 30.0896 22.8865 29.9197 22.9715C29.9197 22.9715 29.915 22.9715 29.915 22.9762C29.7688 23.0564 29.6131 23.1319 29.448 23.2121C28.8961 23.4715 28.2592 23.7121 27.5611 23.9244C27.4054 23.9716 27.2498 24.0187 27.0894 24.0659H27.0847C26.9337 24.1083 26.7781 24.1508 26.6177 24.1933C26.0233 24.3442 25.3959 24.481 24.7307 24.5943C24.5751 24.6225 24.4194 24.6508 24.259 24.6745H24.2543C24.0986 24.6981 23.9477 24.7263 23.7873 24.7452C23.1788 24.8348 22.5514 24.9056 21.9004 24.9622C21.7447 24.9763 21.589 24.9905 21.4287 24.9999H21.4239C21.2683 25.0141 21.1173 25.0236 20.9569 25.033C20.3437 25.0707 19.7116 25.0943 19.07 25.099C18.9143 25.1037 18.7587 25.1037 18.5983 25.1037H18.5936C18.4332 25.1037 18.2822 25.1037 18.1266 25.099C17.485 25.0943 16.8529 25.0707 16.2396 25.033C16.0792 25.0236 15.9236 25.0142 15.7679 24.9999H15.7632C15.6028 24.9905 15.4519 24.9763 15.2962 24.9622C14.6452 24.9056 14.0178 24.8348 13.4093 24.7452C13.2489 24.7263 13.0932 24.6981 12.9376 24.6745H12.9328C12.7725 24.6508 12.6215 24.6225 12.4659 24.5943C11.8007 24.481 11.1733 24.3442 10.5789 24.1933C10.4185 24.1508 10.2581 24.1083 10.1072 24.0659H10.1025C9.9421 24.0187 9.79115 23.9716 9.63549 23.9244C8.93733 23.7121 8.30046 23.4715 7.74853 23.2121C7.58344 23.1366 7.42777 23.0564 7.27683 22.9715C7.27683 22.9715 7.27211 22.9715 7.27211 22.9668C7.10702 22.8866 6.95135 22.797 6.80512 22.7027C5.77677 22.0564 5.19177 21.311 5.19177 20.5232V16.9286H32V16.9286Z" fill="#F6C358"/>
        <path d="M32 16.9285C32 17.7164 31.4198 18.4569 30.3914 19.0985C30.2405 19.1975 30.0848 19.2919 29.9149 19.3769C29.7687 19.4618 29.6131 19.5372 29.448 19.6175C28.896 19.8769 28.2592 20.1128 27.561 20.3298C27.4053 20.3769 27.2497 20.4241 27.0893 20.4713H27.0846C26.9336 20.5138 26.778 20.5563 26.6176 20.5987C26.0232 20.7497 25.3958 20.8865 24.7306 20.9997C24.575 21.0281 24.4193 21.0563 24.2589 21.0799H24.2542C24.0985 21.1035 23.9476 21.1318 23.7872 21.1506C23.1787 21.2403 22.5513 21.311 21.9003 21.3677C21.7446 21.3818 21.5889 21.396 21.4286 21.4054H21.4238C21.2682 21.4195 21.1172 21.429 20.9569 21.4384C20.3436 21.4762 19.7115 21.4998 19.0699 21.5045C18.9142 21.5092 18.7586 21.5092 18.5982 21.5092H18.5935C18.4331 21.5092 18.2822 21.5092 18.1265 21.5045C17.4849 21.4998 16.8528 21.4762 16.2395 21.4384C16.0792 21.429 15.9235 21.4195 15.7678 21.4054H15.7631C15.6027 21.396 15.4518 21.3818 15.2961 21.3677C14.6451 21.311 14.0177 21.2403 13.4092 21.1506C13.2488 21.1318 13.0931 21.1035 12.9375 21.0799H12.9328C12.7724 21.0563 12.6214 21.0281 12.4658 20.9997C11.8006 20.8865 11.1732 20.7497 10.5788 20.5987C10.4184 20.5563 10.258 20.5138 10.1071 20.4713H10.1024C9.94201 20.4242 9.79106 20.377 9.6354 20.3298C8.93723 20.1174 8.30037 19.8769 7.74844 19.6175C7.58335 19.5419 7.42768 19.4618 7.27674 19.3769C7.27674 19.3769 7.27202 19.3769 7.27202 19.3722C7.10693 19.2919 6.95126 19.2023 6.80503 19.108C5.77668 18.4617 5.19168 17.7164 5.19168 16.9286C5.19168 14.4001 11.1968 12.348 18.5983 12.348C25.9999 12.348 32 14.4 32 16.9285Z" fill="#FCD462"/>
        <path d="M18.5561 20.2291C18.423 20.2291 18.2961 20.2289 18.1657 20.2249C17.5445 20.2201 16.9332 20.1986 16.3184 20.1607C16.1678 20.1518 16.0257 20.1434 15.8838 20.1305L15.8259 20.1253H15.8021C15.6808 20.1176 15.565 20.1068 15.4467 20.0961C14.7502 20.0353 14.1577 19.9672 13.5959 19.8842C13.4652 19.8684 13.3748 19.8534 13.2848 19.8388L13.0304 19.7996C12.9327 19.7838 12.6943 19.7403 12.6943 19.7403C12.0837 19.6361 11.4993 19.512 10.8937 19.3579C10.7522 19.3204 10.5985 19.2798 10.4539 19.239L10.0066 19.1048C9.47496 18.9432 8.98678 18.7657 8.55157 18.5761V18.5711L7.83783 18.2242L7.61158 18.0969H7.60262C7.56805 18.0763 7.53327 18.0546 7.49828 18.0321C6.73705 17.5538 6.47144 17.14 6.47144 16.9286C6.47144 15.7651 11.0754 13.628 18.5981 13.628C26.1177 13.628 30.7199 15.765 30.7199 16.9286C30.7199 17.139 30.4563 17.5492 29.7138 18.0124C29.5563 18.1153 29.4461 18.1801 29.342 18.2324L29.2728 18.2697C29.1562 18.3375 29.0313 18.3968 28.8999 18.4606C28.4322 18.6806 27.8531 18.8987 27.1812 19.1074C27.0585 19.1445 26.7379 19.2391 26.7379 19.2391C26.5929 19.2798 26.4435 19.3206 26.2895 19.3614C25.6966 19.512 25.1122 19.6362 24.5156 19.7379C24.39 19.7608 24.2737 19.7818 24.1568 19.8004L23.8958 19.8408C23.8112 19.8547 23.7266 19.8689 23.6385 19.8793C23.0379 19.9673 22.4456 20.0354 21.7892 20.0925C21.6531 20.105 21.5227 20.1169 21.3893 20.1254L21.3077 20.1306C21.1658 20.1435 21.0281 20.1518 20.882 20.1604C20.2631 20.1987 19.6518 20.2202 19.0606 20.2243C18.9008 20.2289 18.7668 20.2291 18.6315 20.2291C18.6205 20.2291 18.5683 20.2291 18.5561 20.2291Z" fill="#F6C358"/>
        <path d="M7.74819 19.6174V23.212C7.5831 23.1366 7.42743 23.0563 7.27648 22.9714C7.27648 22.9714 7.27177 22.9714 7.27177 22.9667C7.10668 22.8865 6.95101 22.7969 6.80478 22.7026V19.108C6.95101 19.2023 7.10668 19.2919 7.27177 19.3721C7.27177 19.3769 7.27648 19.3769 7.27648 19.3769C7.42743 19.4617 7.5831 19.5419 7.74819 19.6174Z" fill="#DC8744"/>
        <path d="M10.5786 20.5986V24.1933C10.4183 24.1508 10.2579 24.1083 10.1069 24.0659H10.1022C9.94184 24.0187 9.79089 23.9716 9.63522 23.9244V20.3298C9.79089 20.3769 9.94184 20.4241 10.1022 20.4713H10.1069C10.2579 20.5137 10.4183 20.5562 10.5786 20.5986Z" fill="#DC8744"/>
        <path d="M13.409 21.1505V24.7451C13.2486 24.7263 13.0929 24.698 12.9373 24.6744H12.9326C12.7722 24.6508 12.6212 24.6225 12.4656 24.5942V20.9996C12.6212 21.0279 12.7722 21.0562 12.9326 21.0797H12.9373C13.0929 21.1034 13.2486 21.1317 13.409 21.1505Z" fill="#DC8744"/>
        <path d="M16.2394 21.4383V25.033C16.0791 25.0235 15.9234 25.0141 15.7677 24.9999H15.763C15.6026 24.9904 15.4517 24.9762 15.296 24.9621V21.3676C15.4517 21.3817 15.6026 21.3958 15.763 21.4053H15.7677C15.9234 21.4193 16.0791 21.4288 16.2394 21.4383Z" fill="#DC8744"/>
        <path d="M19.0698 21.5043V25.0989C18.9141 25.1036 18.7585 25.1036 18.5981 25.1036H18.5934C18.433 25.1036 18.282 25.1036 18.1264 25.0989V21.5043C18.282 21.509 18.433 21.509 18.5934 21.509H18.5981C18.7585 21.509 18.9141 21.509 19.0698 21.5043Z" fill="#DC8744"/>
        <path d="M21.9002 21.3676V24.9621C21.7446 24.9762 21.5889 24.9904 21.4285 24.9999H21.4238C21.2681 25.014 21.1172 25.0235 20.9568 25.033V21.4383C21.1172 21.4288 21.2681 21.4194 21.4238 21.4053H21.4285C21.5888 21.3958 21.7446 21.3817 21.9002 21.3676Z" fill="#DC8744"/>
        <path d="M24.7306 20.9996V24.5942C24.5749 24.6225 24.4193 24.6508 24.2589 24.6744H24.2542C24.0985 24.698 23.9475 24.7262 23.7872 24.7451V21.1505C23.9475 21.1317 24.0985 21.1034 24.2542 21.0797H24.2589C24.4193 21.0562 24.5749 21.0279 24.7306 20.9996Z" fill="#DC8744"/>
        <path d="M27.561 20.3297V23.9243C27.4054 23.9715 27.2497 24.0186 27.0893 24.0658H27.0846C26.9337 24.1083 26.778 24.1507 26.6176 24.1932V20.5985C26.778 20.5562 26.9337 20.5137 27.0846 20.4712H27.0893C27.2496 20.4241 27.4053 20.3769 27.561 20.3297Z" fill="#DC8744"/>
        <path d="M30.3914 19.0985V22.7025C30.2451 22.7922 30.0895 22.8865 29.9197 22.9714C29.9197 22.9714 29.915 22.9714 29.915 22.9761C29.7687 23.0563 29.6131 23.1319 29.448 23.212V19.6174C29.6131 19.5372 29.7687 19.4617 29.915 19.3769C30.0848 19.2919 30.2404 19.1976 30.3914 19.0985Z" fill="#DC8744"/>
        <path d="M26.8086 11.4769V15.0715C26.8086 15.8593 26.2284 16.5999 25.2 17.251C25.0538 17.3406 24.8981 17.4349 24.7283 17.5198C24.7283 17.5198 24.7236 17.5198 24.7236 17.5246C24.5774 17.6048 24.4217 17.6803 24.2566 17.7604C23.7047 18.0199 23.0678 18.2605 22.3697 18.4728C22.214 18.52 22.0583 18.5671 21.8979 18.6143H21.8932C21.7423 18.6567 21.5866 18.6991 21.4262 18.7416C20.8319 18.8926 20.2044 19.0293 19.5393 19.1426C19.3836 19.1709 19.228 19.1992 19.0676 19.2229H19.0629C18.9072 19.2464 18.7563 19.2746 18.5959 19.2936C17.9874 19.3832 17.3599 19.454 16.7089 19.5105C16.5533 19.5247 16.3975 19.5389 16.2372 19.5483H16.2325C16.0768 19.5625 15.9259 19.572 15.7655 19.5814C15.1523 19.619 14.5201 19.6427 13.8786 19.6474C13.7229 19.6521 13.5672 19.6521 13.4069 19.6521H13.4021C13.2418 19.6521 13.0908 19.6521 12.9351 19.6474C12.2936 19.6427 11.6615 19.619 11.0482 19.5814C10.8878 19.572 10.7322 19.5625 10.5765 19.5483H10.5718C10.4114 19.5389 10.2604 19.5247 10.1048 19.5105C9.45377 19.454 8.82641 19.3832 8.21783 19.2936C8.05745 19.2747 7.90179 19.2464 7.74612 19.2229H7.74141C7.58103 19.1993 7.43008 19.1709 7.27442 19.1426C6.60926 19.0293 5.9819 18.8926 5.38746 18.7416C5.22709 18.6991 5.06671 18.6567 4.91576 18.6143H4.91105C4.75067 18.5671 4.59972 18.52 4.44406 18.4728C3.74589 18.2605 3.10903 18.0199 2.5571 17.7604C2.39201 17.685 2.23634 17.6048 2.0854 17.5198C2.0854 17.5198 2.08068 17.5198 2.08068 17.5151C1.91559 17.435 1.75992 17.3454 1.61369 17.251C0.584933 16.6047 0 15.8593 0 15.0715V11.4769H26.8086Z" fill="#F6C358"/>
        <path d="M26.8086 11.4769C26.8086 12.2647 26.2284 13.0053 25.2 13.6469C25.0491 13.7459 24.8934 13.8403 24.7235 13.9253C24.5773 14.0102 24.4216 14.0856 24.2565 14.1658C23.7046 14.4253 23.0677 14.6612 22.3696 14.8781C22.2139 14.9253 22.0582 14.9725 21.8979 15.0196H21.8932C21.7422 15.0621 21.5866 15.1046 21.4262 15.147C20.8318 15.298 20.2044 15.4348 19.5392 15.548C19.3836 15.5764 19.2279 15.6046 19.0675 15.6282H19.0628C18.9071 15.6518 18.7562 15.6801 18.5958 15.699C17.9873 15.7886 17.3599 15.8593 16.7089 15.916C16.5532 15.9301 16.3975 15.9443 16.2372 15.9537H16.2324C16.0768 15.9678 15.9258 15.9773 15.7654 15.9867C15.1522 16.0245 14.5201 16.0481 13.8785 16.0528C13.7228 16.0575 13.5672 16.0575 13.4068 16.0575H13.4021C13.2417 16.0575 13.0907 16.0575 12.9351 16.0528C12.2935 16.0481 11.6614 16.0245 11.0481 15.9867C10.8877 15.9773 10.7321 15.9678 10.5764 15.9537H10.5717C10.4113 15.9443 10.2604 15.9301 10.1047 15.916C9.4537 15.8593 8.82634 15.7886 8.21776 15.699C8.05738 15.6801 7.90172 15.6518 7.74606 15.6282H7.74134C7.58096 15.6046 7.43001 15.5764 7.27435 15.548C6.6092 15.4348 5.98183 15.298 5.3874 15.147C5.22702 15.1046 5.06664 15.0621 4.91569 15.0196H4.91098C4.7506 14.9725 4.59965 14.9253 4.44399 14.8781C3.74583 14.6658 3.10896 14.4253 2.55703 14.1658C2.39194 14.0903 2.23627 14.0102 2.08533 13.9253C2.08533 13.9253 2.08061 13.9253 2.08061 13.9206C1.91552 13.8403 1.75986 13.7507 1.61362 13.6564C0.584933 13.01 0 12.2647 0 11.4769C0 8.94845 6.00513 6.89633 13.4066 6.89633C20.8082 6.89633 26.8086 8.94845 26.8086 11.4769Z" fill="#FCD462"/>
        <path d="M13.3663 14.7774C13.2319 14.7774 13.1042 14.7772 12.9725 14.7734C12.3534 14.7684 11.7419 14.747 11.1265 14.7092C10.9773 14.7003 10.8349 14.6919 10.6923 14.6788L10.6344 14.6736H10.6106C10.4894 14.6659 10.3735 14.6551 10.2552 14.6445C9.55875 14.5836 8.96623 14.5155 8.40439 14.4326C8.27504 14.4167 8.18586 14.4021 8.0971 14.3878L7.83921 14.3482C7.74443 14.3328 7.50355 14.2886 7.50355 14.2886C6.89457 14.1851 6.31025 14.061 5.70229 13.9063C5.56002 13.8688 5.40668 13.8282 5.26208 13.7876L4.81587 13.6532C4.28423 13.4915 3.79586 13.3143 3.36023 13.1244V13.1195L2.64588 12.7722L2.41983 12.6453H2.41129C2.37671 12.6247 2.34213 12.6032 2.30735 12.5809C1.54571 12.102 1.28003 11.6882 1.28003 11.477C1.28003 10.3135 5.88399 8.17636 13.4067 8.17636C20.9263 8.17636 25.5285 10.3134 25.5285 11.477C25.5285 11.6874 25.265 12.0976 24.5224 12.5612C24.3651 12.6637 24.2545 12.7287 24.1506 12.7807L24.0814 12.818C23.9648 12.8858 23.8399 12.9451 23.7085 13.0089C23.2408 13.2289 22.6617 13.447 21.9898 13.6557L21.5465 13.7876C21.4019 13.8283 21.2531 13.8689 21.0998 13.9093C20.5031 14.061 19.9187 14.1851 19.3245 14.2861C19.1956 14.3094 19.0764 14.3314 18.957 14.3503L18.7022 14.3894C18.6182 14.4032 18.5343 14.4174 18.447 14.4276C17.8463 14.5155 17.2541 14.5836 16.5976 14.6407C16.4626 14.653 16.3316 14.6651 16.198 14.6736L16.1161 14.6788C15.9739 14.6917 15.8355 14.7003 15.6889 14.709C15.0713 14.747 14.4599 14.7684 13.8687 14.7728C13.7101 14.7772 13.5753 14.7774 13.4393 14.7774C13.4286 14.7774 13.3782 14.7774 13.3663 14.7774Z" fill="#F6C358"/>
        <path d="M2.55675 14.1657V17.7603C2.39166 17.6849 2.236 17.6047 2.08505 17.5197C2.08505 17.5197 2.08033 17.5197 2.08033 17.515C1.91524 17.4349 1.75958 17.3453 1.61334 17.2509V13.6563C1.75958 13.7506 1.91524 13.8403 2.08033 13.9205C2.08033 13.9252 2.08505 13.9252 2.08505 13.9252C2.236 14.0101 2.39166 14.0902 2.55675 14.1657Z" fill="#DC8744"/>
        <path d="M5.3872 15.1469V18.7416C5.22682 18.6991 5.06644 18.6567 4.91549 18.6142H4.91078C4.7504 18.567 4.59945 18.5199 4.44379 18.4727V14.8781C4.59945 14.9253 4.7504 14.9725 4.91078 15.0196H4.91549C5.06644 15.0621 5.22682 15.1046 5.3872 15.1469Z" fill="#DC8744"/>
        <path d="M8.21755 15.6989V19.2935C8.05717 19.2746 7.90151 19.2463 7.74585 19.2227H7.74113C7.58075 19.1992 7.4298 19.1708 7.27414 19.1425V15.5479C7.4298 15.5763 7.58075 15.6045 7.74113 15.6281H7.74585C7.90151 15.6517 8.05717 15.6801 8.21755 15.6989Z" fill="#DC8744"/>
        <path d="M11.048 15.9866V19.5813C10.8876 19.5719 10.732 19.5624 10.5763 19.5482H10.5716C10.4112 19.5388 10.2602 19.5246 10.1046 19.5104V15.9159C10.2602 15.93 10.4112 15.9442 10.5716 15.9536H10.5763C10.732 15.9678 10.8875 15.9772 11.048 15.9866Z" fill="#DC8744"/>
        <path d="M13.8783 16.0527V19.6473C13.7227 19.652 13.567 19.652 13.4066 19.652H13.4019C13.2415 19.652 13.0906 19.652 12.9349 19.6473V16.0527C13.0906 16.0574 13.2415 16.0574 13.4019 16.0574H13.4066C13.567 16.0574 13.7227 16.0574 13.8783 16.0527Z" fill="#DC8744"/>
        <path d="M16.7088 15.9159V19.5104C16.5531 19.5246 16.3974 19.5388 16.2371 19.5482H16.2324C16.0767 19.5624 15.9258 19.5719 15.7654 19.5813V15.9866C15.9258 15.9772 16.0767 15.9678 16.2324 15.9536H16.2371C16.3974 15.9442 16.5531 15.9301 16.7088 15.9159Z" fill="#DC8744"/>
        <path d="M19.5391 15.5479V19.1425C19.3835 19.1708 19.2278 19.1991 19.0674 19.2227H19.0627C18.9071 19.2463 18.7561 19.2745 18.5957 19.2935V15.6989C18.7561 15.68 18.9071 15.6517 19.0627 15.6281H19.0674C19.2278 15.6046 19.3835 15.5763 19.5391 15.5479Z" fill="#DC8744"/>
        <path d="M22.3696 14.8781V18.4727C22.2139 18.5199 22.0582 18.567 21.8979 18.6142H21.8931C21.7422 18.6566 21.5865 18.699 21.4261 18.7415V15.1469C21.5865 15.1045 21.7422 15.062 21.8931 15.0195H21.8979C22.0582 14.9724 22.2138 14.9252 22.3696 14.8781Z" fill="#DC8744"/>
        <path d="M25.1999 13.6468V17.2509C25.0537 17.3405 24.898 17.4348 24.7282 17.5197C24.7282 17.5197 24.7235 17.5197 24.7235 17.5245C24.5773 17.6047 24.4216 17.6802 24.2565 17.7603V14.1657C24.4216 14.0855 24.5773 14.0101 24.7235 13.9252C24.8933 13.8402 25.049 13.7459 25.1999 13.6468Z" fill="#DC8744"/>
        <path d="M32 6.02527V9.61987C32 10.4076 31.4198 11.1483 30.3915 11.7993C30.2452 11.8889 30.0896 11.9832 29.9197 12.0682C29.9197 12.0682 29.915 12.0682 29.915 12.0729C29.7688 12.1531 29.6131 12.2286 29.448 12.3088C28.8961 12.5682 28.2592 12.8089 27.5611 13.0211C27.4054 13.0683 27.2498 13.1154 27.0894 13.1626H27.0847C26.9337 13.205 26.7781 13.2475 26.6177 13.29C26.0233 13.4409 25.3959 13.5777 24.7307 13.691C24.5751 13.7193 24.4194 13.7475 24.259 13.7712H24.2543C24.0986 13.7948 23.9477 13.823 23.7873 13.8419C23.1788 13.9315 22.5514 14.0024 21.9004 14.0589C21.7447 14.073 21.589 14.0872 21.4287 14.0967H21.4239C21.2683 14.1108 21.1173 14.1203 20.9569 14.1297C20.3437 14.1674 19.7116 14.191 19.07 14.1957C18.9143 14.2005 18.7587 14.2005 18.5983 14.2005H18.5936C18.4332 14.2005 18.2822 14.2005 18.1266 14.1957C17.485 14.191 16.8529 14.1674 16.2396 14.1297C16.0792 14.1203 15.9236 14.1109 15.7679 14.0967H15.7632C15.6028 14.0872 15.4519 14.073 15.2962 14.0589C14.6452 14.0023 14.0178 13.9315 13.4093 13.8419C13.2489 13.8231 13.0932 13.7948 12.9376 13.7712H12.9328C12.7725 13.7476 12.6215 13.7193 12.4659 13.691C11.8007 13.5777 11.1733 13.4409 10.5789 13.29C10.4185 13.2475 10.2581 13.205 10.1072 13.1626H10.1025C9.9421 13.1154 9.79115 13.0683 9.63549 13.0211C8.93733 12.8089 8.30046 12.5682 7.74853 12.3088C7.58344 12.2333 7.42777 12.1531 7.27683 12.0682C7.27683 12.0682 7.27211 12.0682 7.27211 12.0635C7.10702 11.9833 6.95135 11.8937 6.80512 11.7994C5.77677 11.1531 5.19177 10.4077 5.19177 9.61994V6.02527H32Z" fill="#F6C358"/>
        <path d="M32 6.02528C32 6.8131 31.4198 7.55369 30.3914 8.19527C30.2405 8.29429 30.0848 8.38866 29.9149 8.47366C29.7687 8.55853 29.6131 8.63397 29.448 8.7142C28.896 8.97366 28.2592 9.20954 27.561 9.4265C27.4053 9.47365 27.2497 9.52087 27.0893 9.56802H27.0846C26.9336 9.61052 26.778 9.65303 26.6176 9.69539C26.0232 9.84641 25.3958 9.98321 24.7306 10.0964C24.575 10.1248 24.4193 10.153 24.2589 10.1766H24.2542C24.0985 10.2002 23.9476 10.2285 23.7872 10.2474C23.1787 10.337 22.5513 10.4078 21.9003 10.4644C21.7446 10.4786 21.5889 10.4927 21.4286 10.5021H21.4238C21.2682 10.5162 21.1172 10.5257 20.9569 10.5351C20.3436 10.5729 19.7115 10.5965 19.0699 10.6012C18.9142 10.6059 18.7586 10.6059 18.5982 10.6059H18.5935C18.4331 10.6059 18.2822 10.6059 18.1265 10.6012C17.4849 10.5966 16.8528 10.5729 16.2395 10.5351C16.0792 10.5257 15.9235 10.5163 15.7678 10.5021H15.7631C15.6027 10.4927 15.4518 10.4786 15.2961 10.4644C14.6451 10.4078 14.0177 10.337 13.4092 10.2474C13.2488 10.2285 13.0931 10.2002 12.9375 10.1766H12.9328C12.7724 10.153 12.6214 10.1248 12.4658 10.0964C11.8006 9.98321 11.1732 9.84641 10.5788 9.69539C10.4184 9.65303 10.258 9.61052 10.1071 9.56802H10.1024C9.94201 9.52094 9.79106 9.47372 9.6354 9.4265C8.93723 9.21419 8.30037 8.97366 7.74844 8.7142C7.58335 8.63869 7.42768 8.55853 7.27674 8.47366C7.27674 8.47366 7.27202 8.47366 7.27202 8.46895C7.10693 8.38866 6.95126 8.29907 6.80503 8.20477C5.77668 7.55847 5.19168 6.81316 5.19168 6.02535C5.19168 3.49688 11.1968 1.44476 18.5983 1.44476C25.9999 1.44476 32 3.49681 32 6.02528Z" fill="#FCD462"/>
        <path d="M18.5561 9.32591C18.423 9.32591 18.2961 9.32571 18.1657 9.32174C17.5449 9.31675 16.9334 9.2953 16.318 9.25758C16.1678 9.24863 16.0257 9.24008 15.8838 9.22717L15.8258 9.22198H15.8021C15.6808 9.21425 15.565 9.20346 15.4467 9.1928C14.751 9.13198 14.1585 9.06385 13.5954 8.9811C13.4683 8.96545 13.3794 8.95069 13.2909 8.93655L13.0307 8.89657C12.9365 8.88133 12.6944 8.83699 12.6944 8.83699C12.0859 8.73346 11.5015 8.6093 10.8938 8.45466C10.7515 8.41715 10.5981 8.37656 10.454 8.3359L10.0052 8.20128C9.47563 8.04022 8.98773 7.86276 8.5517 7.67293V7.66774L7.83796 7.32088L7.61171 7.19357H7.60255C7.56818 7.17314 7.53381 7.15168 7.49964 7.12961C6.73711 6.65046 6.4715 6.2367 6.4715 6.02521C6.4715 4.8617 11.0755 2.72458 18.5981 2.72458C26.1177 2.72458 30.72 4.86163 30.72 6.02521C30.72 6.23561 30.4564 6.64581 29.7139 7.10939C29.5566 7.21189 29.446 7.27687 29.342 7.32894L29.2729 7.36625C29.1541 7.4352 29.0268 7.4956 28.8929 7.56086C28.4327 7.77714 27.8531 7.99526 27.181 8.20422L26.7379 8.3359C26.5933 8.37656 26.4445 8.41715 26.2912 8.45753C25.6945 8.60923 25.1101 8.73339 24.5159 8.83439C24.3853 8.85817 24.2666 8.87983 24.1476 8.89855L23.8905 8.93812C23.807 8.95185 23.7237 8.96579 23.6368 8.97604C23.0373 9.06399 22.4445 9.13184 21.7891 9.18897C21.653 9.20148 21.5227 9.21337 21.3893 9.22191L21.3076 9.2271C21.1658 9.24002 21.0281 9.24856 20.882 9.2571C20.2628 9.29523 19.6514 9.31669 19.0601 9.32106C18.9007 9.32564 18.7667 9.32584 18.6313 9.32584C18.6205 9.32591 18.5683 9.32591 18.5561 9.32591Z" fill="#F6C358"/>
        <path d="M7.74819 8.71414V12.3087C7.5831 12.2333 7.42743 12.1531 7.27648 12.0681C7.27648 12.0681 7.27177 12.0681 7.27177 12.0634C7.10668 11.9833 6.95101 11.8937 6.80478 11.7993V8.20471C6.95101 8.29901 7.10668 8.38866 7.27177 8.46889C7.27177 8.4736 7.27648 8.4736 7.27648 8.4736C7.42743 8.55847 7.5831 8.6387 7.74819 8.71414Z" fill="#DC8744"/>
        <path d="M10.5786 9.69534V13.29C10.4183 13.2475 10.2579 13.2051 10.1069 13.1626H10.1022C9.94184 13.1154 9.79089 13.0683 9.63522 13.0211V9.42651C9.79089 9.47366 9.94184 9.52088 10.1022 9.56803H10.1069C10.2579 9.61047 10.4183 9.65297 10.5786 9.69534Z" fill="#DC8744"/>
        <path d="M13.409 10.2473V13.8419C13.2486 13.823 13.0929 13.7947 12.9373 13.7711H12.9326C12.7722 13.7476 12.6212 13.7192 12.4656 13.6909V10.0963C12.6212 10.1247 12.7722 10.1529 12.9326 10.1765H12.9373C13.0929 10.2001 13.2486 10.2285 13.409 10.2473Z" fill="#DC8744"/>
        <path d="M16.2394 10.535V14.1297C16.0791 14.1203 15.9234 14.1108 15.7677 14.0966H15.763C15.6026 14.0872 15.4517 14.073 15.296 14.0588V10.4643C15.4517 10.4784 15.6026 10.4926 15.763 10.502H15.7677C15.9234 10.5162 16.0791 10.5256 16.2394 10.535Z" fill="#DC8744"/>
        <path d="M19.0698 10.6011V14.1957C18.9141 14.2004 18.7585 14.2004 18.5981 14.2004H18.5934C18.433 14.2004 18.282 14.2004 18.1264 14.1957V10.6011C18.282 10.6058 18.433 10.6058 18.5934 10.6058H18.5981C18.7585 10.6058 18.9141 10.6058 19.0698 10.6011Z" fill="#DC8744"/>
        <path d="M21.9002 10.4644V14.0589C21.7446 14.073 21.5889 14.0872 21.4285 14.0967H21.4238C21.2681 14.1108 21.1172 14.1203 20.9568 14.1298V10.5351C21.1172 10.5257 21.2681 10.5162 21.4238 10.5021H21.4285C21.5888 10.4926 21.7446 10.4785 21.9002 10.4644Z" fill="#DC8744"/>
        <path d="M24.7306 10.0964V13.691C24.5749 13.7193 24.4193 13.7476 24.2589 13.7712H24.2542C24.0985 13.7948 23.9475 13.823 23.7872 13.8419V10.2473C23.9475 10.2284 24.0985 10.2001 24.2542 10.1765H24.2589C24.4193 10.153 24.5749 10.1247 24.7306 10.0964Z" fill="#DC8744"/>
        <path d="M27.561 9.42651V13.0211C27.4054 13.0683 27.2497 13.1154 27.0893 13.1626H27.0846C26.9337 13.2051 26.778 13.2475 26.6176 13.29V9.69534C26.778 9.65297 26.9337 9.61047 27.0846 9.56796H27.0893C27.2496 9.52088 27.4053 9.47366 27.561 9.42651Z" fill="#DC8744"/>
        <path d="M30.3914 8.19528V11.7993C30.2451 11.889 30.0895 11.9833 29.9197 12.0682C29.9197 12.0682 29.915 12.0682 29.915 12.0729C29.7687 12.1531 29.6131 12.2286 29.448 12.3088V8.7142C29.6131 8.63398 29.7687 8.55854 29.915 8.47367C30.0848 8.3886 30.2404 8.2943 30.3914 8.19528Z" fill="#DC8744"/>
    </g>
    <defs>
        <clipPath id="clip0">
            <rect width="32" height="32" fill="white"/>
        </clipPath>
    </defs>
</svg>
