<svg width="32" height="32" viewBox="0 0 32 32" fill="none" xmlns="http://www.w3.org/2000/svg">
<path fill-rule="evenodd" clip-rule="evenodd" d="M9.99927 9.50146C10.8277 9.50146 11.4993 10.173 11.4993 11.0015V21.0015C11.4993 21.8299 10.8277 22.5015 9.99927 22.5015C9.17084 22.5015 8.49927 21.8299 8.49927 21.0015V11.0015C8.49927 10.173 9.17084 9.50146 9.99927 9.50146Z" fill="#FFFFFF"/>
<path fill-rule="evenodd" clip-rule="evenodd" d="M4.991 3.8901C5.60399 3.33284 6.55266 3.37801 7.10992 3.991L27.1099 25.991C27.6672 26.604 27.622 27.5527 27.009 28.1099C26.396 28.6672 25.4474 28.622 24.8901 28.009L4.8901 6.00902C4.33284 5.39603 4.37801 4.44736 4.991 3.8901Z" fill="#FFFFFF"/>
<path fill-rule="evenodd" clip-rule="evenodd" d="M12.0369 9.41717C12.5455 10.0711 12.4277 11.0135 11.7738 11.5221L10.9209 12.1854C10.6576 12.3902 10.3336 12.5014 10 12.5014H4.5V19.5014H10C10.3336 19.5014 10.6576 19.6126 10.9209 19.8174L17.5 24.9345V19.3C17.5 18.4715 18.1716 17.8 19 17.8C19.8284 17.8 20.5 18.4715 20.5 19.3V28.0014C20.5 28.5743 20.1737 29.0972 19.659 29.3489C19.1444 29.6006 18.5313 29.5372 18.0791 29.1854L9.48534 22.5014H4C3.33695 22.5014 2.70107 22.238 2.23223 21.7692C1.76339 21.3003 1.5 20.6645 1.5 20.0014V12.0014C1.5 11.3384 1.76339 10.7025 2.23223 10.2336C2.70107 9.7648 3.33696 9.50141 4 9.50141H9.48534L9.93193 9.15406C10.5858 8.64545 11.5283 8.76325 12.0369 9.41717Z" fill="#FFFFFF"/>
<path fill-rule="evenodd" clip-rule="evenodd" d="M19.659 2.65401C20.1737 2.90571 20.5 3.42858 20.5 4.00148V11.8669C20.5 12.6953 19.8284 13.3669 19 13.3669C18.1716 13.3669 17.5 12.6953 17.5 11.8669V7.06841L15.7322 8.44339C15.0782 8.95199 14.1358 8.83418 13.6272 8.18025C13.1186 7.52633 13.2364 6.58392 13.8904 6.07532L18.0791 2.81744C18.5313 2.46572 19.1444 2.4023 19.659 2.65401Z" fill="#FFFFFF"/>
<path fill-rule="evenodd" clip-rule="evenodd" d="M22.7651 12.1122C23.351 11.5265 24.3008 11.5268 24.8864 12.1127C25.7243 12.951 26.2691 14.0375 26.4397 15.2104C26.6104 16.3834 26.3977 17.58 25.8333 18.6223C25.4389 19.3508 24.5286 19.6217 23.8001 19.2272C23.0716 18.8328 22.8008 17.9225 23.1952 17.194C23.4518 16.7199 23.5486 16.1757 23.471 15.6423C23.3934 15.1089 23.1456 14.6147 22.7645 14.2335C22.1789 13.6476 22.1791 12.6978 22.7651 12.1122Z" fill="#FFFFFF"/>
<path fill-rule="evenodd" clip-rule="evenodd" d="M26.3004 8.57677C26.8862 7.99099 27.8359 7.99102 28.4217 8.57682C30.2653 10.4205 31.3571 12.8842 31.4845 15.4884C31.6119 18.0926 30.7659 20.6511 29.1111 22.666C28.5854 23.3062 27.6401 23.399 27 22.8732C26.3598 22.3474 26.267 21.4022 26.7928 20.762C27.9748 19.3228 28.5791 17.4952 28.4881 15.635C28.3971 13.7748 27.6172 12.015 26.3003 10.6981C25.7146 10.1123 25.7146 9.16254 26.3004 8.57677Z" fill="#FFFFFF"/>
</svg>
