<svg width="32" height="32" viewBox="0 0 32 32" fill="none" xmlns="http://www.w3.org/2000/svg">
<path fill-rule="evenodd" clip-rule="evenodd" d="M13.45 5.6C14.1167 4.9 15.0333 4.5 16 4.5C17.9333 4.5 19.5 6.06667 19.5 8V14.0667C19.5 14.9 20.1667 15.5667 21 15.5667C21.8333 15.5667 22.5 14.9 22.5 14.0667V8C22.5 4.41667 19.5833 1.5 16 1.5C14.2167 1.5 12.5 2.23333 11.2667 3.53333C10.7 4.13333 10.7333 5.08333 11.3333 5.65C11.9333 6.23333 12.8833 6.2 13.45 5.6ZM7.11667 3.98331C6.56667 3.36665 5.61667 3.33331 5 3.88331C4.38333 4.43331 4.35 5.38331 4.9 5.99998L9.5 11.0833V15C9.5 18.5833 12.4167 21.5 16 21.5H16.0167C16.8833 21.5 17.7333 21.3166 18.5167 21L19.9167 22.55C16.3833 24.3833 11.9 23.5333 9.33333 20.2833C8.15 18.7833 7.5 16.9166 7.5 15C7.5 14.1666 6.83333 13.5 6 13.5C5.16667 13.5 4.5 14.1666 4.5 15C4.5 17.5833 5.38333 20.1166 6.98333 22.15C8.86667 24.5 11.5167 26 14.5 26.4V29C14.5 29.8333 15.1667 30.5 16 30.5C16.8333 30.5 17.5 29.8333 17.5 29V26.4C19.0833 26.2 20.6167 25.65 21.9833 24.8166L24.8833 28C25.1833 28.3333 25.5833 28.4833 26 28.4833C26.3667 28.4833 26.7167 28.35 27.0167 28.1C27.6333 27.55 27.6667 26.6 27.1167 25.9833L7.11667 3.98331ZM16 18.5C14.0667 18.5 12.5 16.9333 12.5 15V14.3833L16.2333 18.5H16ZM25.2667 20.2667C25.0833 20.2667 24.8833 20.2167 24.7 20.15C23.9333 19.8333 23.5667 18.9667 23.8667 18.2C24.2833 17.1833 24.4833 16.1 24.4833 15C24.4833 14.1667 25.15 13.5 25.9833 13.5C26.8167 13.5 27.4833 14.1667 27.4833 15C27.5 16.5 27.2167 17.95 26.65 19.3333C26.4167 19.9167 25.8667 20.2667 25.2667 20.2667Z" fill="#FFFFFF"/>
</svg>
