<svg width="32" height="32" viewBox="0 0 32 32" fill="none" xmlns="http://www.w3.org/2000/svg">
<path fill-rule="evenodd" clip-rule="evenodd" d="M26.3018 8.57533C26.8876 7.98954 27.8373 7.98954 28.4231 8.57533C29.3981 9.55034 30.1716 10.7079 30.6992 11.9818C31.2269 13.2557 31.4985 14.6211 31.4985 15.9999C31.4985 17.3788 31.2269 18.7442 30.6992 20.0181C30.1716 21.292 29.3981 22.4495 28.4231 23.4246C27.8373 24.0103 26.8876 24.0103 26.3018 23.4246C25.716 22.8388 25.716 21.889 26.3018 21.3032C26.9983 20.6068 27.5507 19.78 27.9276 18.8701C28.3045 17.9601 28.4985 16.9849 28.4985 15.9999C28.4985 15.015 28.3045 14.0398 27.9276 13.1298C27.5507 12.2199 26.9983 11.3931 26.3018 10.6966C25.716 10.1109 25.716 9.16111 26.3018 8.57533Z" fill="#FFFFFF"/>
<path fill-rule="evenodd" clip-rule="evenodd" d="M19.659 2.65254C20.1737 2.90424 20.5 3.42711 20.5 4.00001V28C20.5 28.5729 20.1737 29.0958 19.659 29.3475C19.1444 29.5992 18.5313 29.5358 18.0791 29.184L9.48534 22.5H4C3.33696 22.5 2.70108 22.2366 2.23223 21.7678C1.76339 21.2989 1.5 20.6631 1.5 20V12C1.5 11.337 1.76339 10.7011 2.23223 10.2322C2.70107 9.7634 3.33696 9.50001 4 9.50001H9.48534L18.0791 2.81598C18.5313 2.46426 19.1444 2.40083 19.659 2.65254ZM17.5 7.06697L10.9209 12.184C10.6576 12.3888 10.3336 12.5 10 12.5H4.5V19.5H10C10.3336 19.5 10.6576 19.6112 10.9209 19.816L17.5 24.9331V7.06697Z" fill="#FFFFFF"/>
<path fill-rule="evenodd" clip-rule="evenodd" d="M9.9978 9.5C10.8262 9.5 11.4978 10.1716 11.4978 11V21C11.4978 21.8284 10.8262 22.5 9.9978 22.5C9.16938 22.5 8.4978 21.8284 8.4978 21V11C8.4978 10.1716 9.16938 9.5 9.9978 9.5Z" fill="#FFFFFF"/>
<path fill-rule="evenodd" clip-rule="evenodd" d="M22.7663 12.111C23.3521 11.5252 24.3018 11.5252 24.8876 12.111C25.3983 12.6217 25.8034 13.228 26.0798 13.8953C26.3562 14.5626 26.4985 15.2778 26.4985 16.0001C26.4985 16.7223 26.3562 17.4375 26.0798 18.1048C25.8034 18.7721 25.3983 19.3784 24.8876 19.8891C24.3018 20.4749 23.3521 20.4749 22.7663 19.8891C22.1805 19.3034 22.1805 18.3536 22.7663 17.7678C22.9984 17.5357 23.1826 17.2601 23.3082 16.9568C23.4338 16.6535 23.4985 16.3284 23.4985 16.0001C23.4985 15.6718 23.4338 15.3467 23.3082 15.0433C23.1826 14.74 22.9984 14.4644 22.7663 14.2323C22.1805 13.6465 22.1805 12.6968 22.7663 12.111Z" fill="#FFFFFF"/>
</svg>
