<svg width="12" height="13" viewBox="0 0 12 13" fill="none"
    xmlns="http://www.w3.org/2000/svg">
    <path d="M11.9687 5.10315C11.8902 4.86016 11.6746 4.68758 11.4197 4.6646L7.95614 4.35011L6.58656 1.14449C6.48558 0.909557 6.25559 0.757484 6.00006 0.757484C5.74453 0.757484 5.51454 0.909557 5.41356 1.14504L4.04399 4.35011L0.579908 4.6646C0.325385 4.68813 0.110414 4.86016 0.0314019 5.10315C-0.0476102 5.34613 0.0253592 5.61265 0.2179 5.78065L2.83592 8.07667L2.06392 11.4773C2.00744 11.7273 2.10448 11.9858 2.31195 12.1358C2.42346 12.2163 2.55393 12.2574 2.68549 12.2574C2.79893 12.2574 2.91145 12.2268 3.01244 12.1663L6.00006 10.3807L8.98659 12.1663C9.20513 12.2978 9.48062 12.2858 9.68762 12.1358C9.89518 11.9853 9.99214 11.7268 9.93565 11.4773L9.16366 8.07667L11.7817 5.78111C11.9742 5.61265 12.0477 5.34659 11.9687 5.10315Z" fill="#FFFFFF"/>
</svg>
