<svg width="25" height="24" viewBox="0 0 25 24" fill="none"
    xmlns="http://www.w3.org/2000/svg">
    <path fill-rule="evenodd" clip-rule="evenodd" d="M12.375 4.125C9.68261 4.125 7.5 6.30761 7.5 9C7.5 11.6924 9.68261 13.875 12.375 13.875C15.0674 13.875 17.25 11.6924 17.25 9C17.25 6.30761 15.0674 4.125 12.375 4.125ZM5.25 9C5.25 5.06497 8.43997 1.875 12.375 1.875C16.31 1.875 19.5 5.06497 19.5 9C19.5 12.935 16.31 16.125 12.375 16.125C8.43997 16.125 5.25 12.935 5.25 9Z" fill="#FFFFFF"/>
    <path fill-rule="evenodd" clip-rule="evenodd" d="M12.3751 16.125C10.7293 16.125 9.11241 16.5581 7.68696 17.3808C6.26151 18.2035 5.07766 19.3868 4.25433 20.8119C3.94352 21.3499 3.25543 21.5341 2.71744 21.2232C2.17945 20.9124 1.99529 20.2243 2.3061 19.6863C3.32695 17.9194 4.79482 16.4521 6.56225 15.4321C8.32969 14.412 10.3344 13.875 12.3751 13.875C14.4158 13.875 16.4205 14.4121 18.1879 15.4322C19.9554 16.4523 21.4232 17.9195 22.444 19.6865C22.7548 20.2245 22.5706 20.9126 22.0326 21.2234C21.4946 21.5342 20.8066 21.3501 20.4958 20.8121C19.6725 19.387 18.4886 18.2036 17.0632 17.3809C15.6378 16.5581 14.0209 16.125 12.3751 16.125Z" fill="#FFFFFF"/>
</svg>
