<svg width="32" height="32" viewBox="0 0 32 32" fill="none"
    xmlns="http://www.w3.org/2000/svg">
    <path fill-rule="evenodd" clip-rule="evenodd" d="M16.6505 5.53051C14.0986 5.37083 11.5763 6.1482 9.55701 7.71665C7.53776 9.28511 6.16054 11.5368 5.68396 14.0488C5.20872 16.5537 5.66164 19.1457 6.95766 21.3408C7.17182 21.6905 7.2393 22.1226 7.12098 22.5367L6.18406 25.8159L9.46327 24.879C9.87117 24.7625 10.3041 24.8252 10.658 25.0416C12.8534 26.3382 15.4459 26.7914 17.9513 26.316C20.4633 25.8394 22.7149 24.4622 24.2834 22.443C25.8518 20.4237 26.6292 17.9013 26.4695 15.3495C26.3098 12.7976 25.224 10.3919 23.4161 8.58391C21.6081 6.77596 19.2023 5.6902 16.6505 5.53051ZM9.68724 27.9351C12.3867 29.3624 15.4976 29.8351 18.5105 29.2635C21.7406 28.6506 24.6358 26.8797 26.6526 24.2833C28.6694 21.6868 29.669 18.4434 29.4636 15.1621C29.2583 11.8808 27.8621 8.78735 25.5374 6.46259C23.2126 4.13783 20.1191 2.74171 16.8378 2.53637C13.5565 2.33104 10.3132 3.33062 7.7167 5.34742C5.12025 7.36422 3.34935 10.2595 2.73653 13.4896C2.16493 16.5025 2.63757 19.6133 4.06492 22.3127L3.05224 25.8571C2.92976 26.2858 2.92414 26.7395 3.03598 27.171C3.14781 27.6026 3.37302 27.9965 3.68828 28.3117C4.00354 28.627 4.39737 28.8522 4.82895 28.964C5.26053 29.0759 5.71418 29.0702 6.14286 28.9478L9.68724 27.9351Z" fill="#FFFFFF"/>
    <path d="M16 18C17.1046 18 18 17.1046 18 16C18 14.8954 17.1046 14 16 14C14.8954 14 14 14.8954 14 16C14 17.1046 14.8954 18 16 18Z" fill="#FFFFFF"/>
    <path d="M22 18C23.1046 18 24 17.1046 24 16C24 14.8954 23.1046 14 22 14C20.8954 14 20 14.8954 20 16C20 17.1046 20.8954 18 22 18Z" fill="#FFFFFF"/>
    <path d="M10 18C11.1046 18 12 17.1046 12 16C12 14.8954 11.1046 14 10 14C8.89543 14 8 14.8954 8 16C8 17.1046 8.89543 18 10 18Z" fill="#FFFFFF"/>
</svg>
