<svg width="32" height="32" viewBox="0 0 32 32" fill="none"
    xmlns="http://www.w3.org/2000/svg">
    <path fill-rule="evenodd" clip-rule="evenodd" d="M16 11.5C13.5147 11.5 11.5 13.5147 11.5 16C11.5 18.4853 13.5147 20.5 16 20.5C18.4853 20.5 20.5 18.4853 20.5 16C20.5 13.5147 18.4853 11.5 16 11.5ZM8.5 16C8.5 11.8579 11.8579 8.5 16 8.5C20.1421 8.5 23.5 11.8579 23.5 16C23.5 20.1421 20.1421 23.5 16 23.5C11.8579 23.5 8.5 20.1421 8.5 16Z" fill="#FFFFFF"/>
    <path fill-rule="evenodd" clip-rule="evenodd" d="M19.1158 2.0671C19.4818 2.01005 19.8558 2.03427 20.2113 2.13802C20.2165 2.13954 20.2217 2.14109 20.2269 2.14266C21.1203 2.41395 21.9852 2.77148 22.8095 3.21021C22.8148 3.21303 22.82 3.21588 22.8253 3.21877C23.1504 3.39687 23.4322 3.64456 23.6505 3.94415C23.8675 4.24186 24.0165 4.58352 24.087 4.94501L24.4531 6.77532L25.225 7.54724L27.0552 7.9133C27.4167 7.98382 27.7583 8.1328 28.056 8.34975C28.3556 8.56807 28.6033 8.84983 28.7814 9.17492C28.7826 9.17708 28.7838 9.17925 28.7849 9.18143C28.7866 9.18451 28.7883 9.1876 28.7899 9.1907C29.2287 10.0149 29.5863 10.8798 29.8577 11.7733C29.8592 11.7785 29.8608 11.7837 29.8623 11.7889C29.9661 12.1445 29.9903 12.5185 29.9332 12.8844C29.8764 13.2489 29.7403 13.5965 29.5346 13.9027C29.5338 13.9039 29.533 13.9051 29.5322 13.9063L28.5001 15.4544V16.546L29.5322 18.0941C29.533 18.0953 29.5338 18.0965 29.5346 18.0978C29.7403 18.4039 29.8764 18.7515 29.9332 19.116C29.9903 19.4819 29.9661 19.8559 29.8623 20.2114C29.8608 20.2167 29.8592 20.2219 29.8576 20.2271C29.5863 21.1206 29.2287 21.9855 28.7899 22.8097C28.7871 22.8149 28.7843 22.8202 28.7814 22.8254C28.6033 23.1506 28.3556 23.4323 28.056 23.6507C27.7583 23.8676 27.4167 24.0165 27.0552 24.0871L25.2249 24.4531L24.453 25.225L24.0869 27.0553C24.0164 27.4168 23.8674 27.7585 23.6505 28.0562C23.4321 28.3558 23.1504 28.6035 22.8253 28.7816C22.82 28.7845 22.8147 28.7874 22.8094 28.7902C21.9852 29.2289 21.1203 29.5865 20.2268 29.8577C20.2217 29.8593 20.2165 29.8608 20.2113 29.8624C19.8558 29.9661 19.4817 29.9903 19.1158 29.9333C18.7514 29.8765 18.4039 29.7405 18.0978 29.5349C18.0965 29.534 18.0952 29.5331 18.0939 29.5323L16.5458 28.5002H15.4541L13.906 29.5322C13.9048 29.533 13.9035 29.5339 13.9022 29.5347C13.5961 29.7403 13.2486 29.8764 12.8842 29.9332C12.5183 29.9902 12.1443 29.966 11.7888 29.8623C11.7836 29.8608 11.7784 29.8592 11.7732 29.8577C10.8797 29.5864 10.0148 29.2289 9.19053 28.79C9.18523 28.7872 9.17994 28.7844 9.17468 28.7815C8.84958 28.6034 8.56782 28.3557 8.34952 28.0561C8.13259 27.7584 7.98363 27.4167 7.91312 27.0552L7.54713 25.2249L6.77524 24.453L4.94505 24.087C4.58351 24.0165 4.24183 23.8675 3.9441 23.6505C3.64451 23.4322 3.39682 23.1505 3.21871 22.8254C3.21582 22.8201 3.21296 22.8148 3.21013 22.8095C2.77136 21.9852 2.41381 21.1202 2.14256 20.2267C2.14099 20.2216 2.13944 20.2164 2.13793 20.2112C2.03418 19.8557 2.00997 19.4817 2.06702 19.1158C2.12382 18.7514 2.2598 18.404 2.46535 18.0979L3.5 16.5459V15.4542L2.46536 13.9023C2.25981 13.5962 2.12383 13.2488 2.06702 12.8844C2.00996 12.5185 2.03416 12.1445 2.13791 11.789C2.13944 11.7837 2.14099 11.7785 2.14257 11.7733C2.4139 10.8798 2.77149 10.0149 3.2103 9.19062C3.21311 9.18534 3.21595 9.18008 3.21883 9.17483C3.39694 8.84971 3.64464 8.56793 3.94423 8.34961C4.24197 8.13265 4.58367 7.98367 4.94521 7.91317L6.77527 7.54721L7.54726 6.77522L7.91322 4.94519C7.98372 4.58364 8.1327 4.24192 8.34969 3.94417C8.56802 3.64456 8.84982 3.39686 9.17495 3.21876C9.18021 3.21587 9.1855 3.21302 9.1908 3.2102C10.015 2.77147 10.8799 2.41395 11.7734 2.14266C11.7786 2.14109 11.7838 2.13954 11.789 2.13802C12.1445 2.03427 12.5185 2.01005 12.8844 2.0671C13.2488 2.1239 13.5962 2.25989 13.9024 2.46545L15.4543 3.50007H16.546L18.0979 2.46541C18.404 2.25987 18.7515 2.1239 19.1158 2.0671ZM19.5789 5.08368L17.8322 6.24815C17.5858 6.41242 17.2963 6.50007 17.0001 6.50007H15.0001C14.704 6.50007 14.4145 6.41242 14.1681 6.24815L12.4214 5.08368C11.8687 5.26398 11.3307 5.48627 10.8119 5.74863L10.4 7.80886C10.3419 8.09926 10.1991 8.36597 9.98973 8.57538L8.57542 9.98969C8.36601 10.1991 8.0993 10.3418 7.8089 10.3999L5.74864 10.8119C5.48625 11.3306 5.26392 11.8687 5.08359 12.4213L6.24807 14.168C6.41234 14.4144 6.5 14.7039 6.5 15.0001V17.0001C6.5 17.2962 6.41234 17.5857 6.24807 17.8321L5.08359 19.5788C5.26386 20.1315 5.48615 20.6695 5.74852 21.1883L7.80895 21.6004C8.09933 21.6585 8.36603 21.8012 8.57543 22.0106L9.98961 23.4248C10.199 23.6342 10.3418 23.9009 10.3998 24.1913L10.8118 26.2517C11.3305 26.5141 11.8685 26.7364 12.4211 26.9166L14.168 25.7521C14.4144 25.5879 14.7039 25.5002 15 25.5002H17C17.2961 25.5002 17.5857 25.5879 17.8321 25.7521L19.5789 26.9167C20.1315 26.7364 20.6695 26.5141 21.1882 26.2518L21.6003 24.1914C21.6584 23.901 21.8011 23.6343 22.0105 23.4249L23.4246 22.0106C23.6341 21.8012 23.9008 21.6584 24.1912 21.6004L26.2516 21.1884C26.514 20.6697 26.7363 20.1317 26.9166 19.5791L25.7521 17.8323C25.5878 17.5859 25.5001 17.2963 25.5001 17.0002V15.0002C25.5001 14.7041 25.5878 14.4145 25.7521 14.1681L26.9166 12.4213C26.7363 11.8687 26.514 11.3307 26.2516 10.812L24.1913 10.3999C23.9009 10.3418 23.6342 10.1991 23.4248 9.98969L22.0106 8.5755C21.8012 8.36611 21.6585 8.09941 21.6004 7.80903L21.1883 5.74864C20.6696 5.48628 20.1315 5.26398 19.5789 5.08368Z" fill="#FFFFFF"/>
</svg>
