<svg width="33" height="32" viewBox="0 0 33 32" fill="none"
    xmlns="http://www.w3.org/2000/svg">
    <path fill-rule="evenodd" clip-rule="evenodd" d="M16.5 4.5C15.5717 4.5 14.6815 4.86875 14.0251 5.52512C13.3687 6.1815 13 7.07173 13 7.99999V15C13 15.4596 13.0905 15.9148 13.2664 16.3394C13.4423 16.764 13.7001 17.1499 14.0251 17.4749C14.3501 17.7999 14.736 18.0577 15.1606 18.2336C15.5852 18.4095 16.0404 18.5 16.5 18.5C17.4283 18.5 18.3185 18.1313 18.9749 17.4749C19.6313 16.8185 20 15.9283 20 15V8C20 7.07174 19.6313 6.1815 18.9749 5.52513C18.3185 4.86875 17.4283 4.5 16.5 4.5H16.5ZM16.5 1.5H16.5C18.2239 1.5 19.8772 2.18482 21.0962 3.40381C22.3152 4.62279 23 6.27609 23 8V15C23 16.7239 22.3152 18.3772 21.0962 19.5962C19.8772 20.8152 18.2239 21.5 16.5 21.5C15.6464 21.5 14.8012 21.3319 14.0126 21.0052C13.2239 20.6786 12.5074 20.1998 11.9038 19.5962C11.3002 18.9926 10.8214 18.2761 10.4948 17.4874C10.1681 16.6988 10 15.8536 10 15V7.99999C10 6.27608 10.6848 4.62279 11.9038 3.4038C13.1228 2.18482 14.7761 1.5 16.5 1.5ZM6.5 13.5C7.32843 13.5 8 14.1716 8 15C8 17.2543 8.89553 19.4163 10.4896 21.0104C12.0837 22.6045 14.2457 23.5 16.5 23.5C18.7543 23.5 20.9163 22.6045 22.5104 21.0104C24.1045 19.4163 25 17.2543 25 15C25 14.1716 25.6716 13.5 26.5 13.5C27.3284 13.5 28 14.1716 28 15C28 18.05 26.7884 20.9751 24.6317 23.1317C22.8317 24.9317 20.4964 26.0734 18 26.4018V29C18 29.8284 17.3284 30.5 16.5 30.5C15.6716 30.5 15 29.8284 15 29V26.4018C12.5036 26.0734 10.1683 24.9317 8.36827 23.1317C6.2116 20.9751 5 18.05 5 15C5 14.1716 5.67157 13.5 6.5 13.5Z" fill="#FFFFFF"/>
</svg>
